<svg viewBox="0 0 14 14" xmlns="http://www.w3.org/2000/svg"><path d="m10.42857 5.7139228q0 .9308-.62946 1.72098-.62947.79018-1.71764 1.24889-1.08817.4587-2.36718.4587-.5759 0-1.17858-.10714-.83035.58928-1.8616.85714-.24107.0603-.5759.10714h-.0201q-.0737 0-.137282-.0536-.06362-.0536-.07701-.14062-.0067-.0201-.0067-.0435 0-.0234.0033-.0435.0033-.0201.01339-.0402l.01674-.0335.02344-.0368.02679-.0335.03013-.0335.02679-.0301q.03348-.0402.154022-.16741.12053-.12723.1741-.19754.0536-.0703.15067-.1942.0971-.12388.16741-.25781.0703-.13393.13728-.29464-.830357-.48215-1.305804-1.18527-.475376-.70315-.475376-1.50002 0-.9308.629464-1.72098.629466-.79018 1.717636-1.24889 1.08817-.4587 2.36719-.4587 1.27901 0 2.36718.4587 1.08817.45871 1.71764 1.24889.62946.79018.62946 1.72098zm2.57143 1.71429q0 .80357-.47545 1.50334-.47544.69978-1.3058 1.1819202.067.16072.13728.29465.0703.13392.16741.25781.0971.12388.15067.19419.0536.0703.1741.19755.12054.12723.15402.16741.007.007.0268.0301.0201.0234.0301.0335.01.01.0268.0335.0167.0234.0234.0368l.0168.0335.0134.0402.003.0435-.007.0435q-.0201.0937-.0871.14732-.067.0536-.14732.0469-.33483-.0469-.5759-.10714-1.03125-.26786-1.8616-.85715-.60268.10715-1.17858.10715-1.81473 0-3.16071-.8839302.38839.0268.58929.0268 1.07812 0 2.06919-.30134.99107-.30134 1.76786-.86383.83705-.61608 1.28571-1.41965.44866-.80357.44866-1.70089 0-.51563-.15401-1.01786.86384.47545 1.36607 1.19197.50223.71651.50223 1.54018z"  fill="white"/></svg>